<?xml version="1.0" encoding="utf-8"?>
<!-- Generator: Adobe Illustrator 16.0.0, SVG Export Plug-In . SVG Version: 6.00 Build 0)  -->
<!DOCTYPE svg PUBLIC "-//W3C//DTD SVG 1.1//EN" "http://www.w3.org/Graphics/SVG/1.1/DTD/svg11.dtd">
<svg version="1.1" id="Layer_1" xmlns="http://www.w3.org/2000/svg" xmlns:xlink="http://www.w3.org/1999/xlink" x="0px" y="0px"
	 width="500px" height="500px" viewBox="0 0 500 500" enable-background="new 0 0 500 500" xml:space="preserve">
<radialGradient id="SVGID_1_" cx="250" cy="250" r="250.0005" gradientUnits="userSpaceOnUse">
	<stop  offset="0" style="stop-color:#E5F8FF"/>
	<stop  offset="0.5213" style="stop-color:#B0EEFF"/>
	<stop  offset="1" style="stop-color:#E5F8FF"/>
</radialGradient>
<rect y="-0.001" fill="url(#SVGID_1_)" width="500" height="500.002"/>
<g>
	<defs>
		<rect id="SVGID_2_" width="500" height="500"/>
	</defs>
	<clipPath id="SVGID_3_">
		<use xlink:href="#SVGID_2_"  overflow="visible"/>
	</clipPath>
	<g clip-path="url(#SVGID_3_)">
		<g>
			<g>
				<g>
					<path fill="#FFFFFF" d="M-81.708,320.284l-0.534-1.927l108.237-30.042c2.819-0.783,5.786-0.416,8.351,1.034
						c2.565,1.45,4.407,3.802,5.19,6.623l25.099,90.426c0.64,2.306,2.147,4.229,4.247,5.417c2.101,1.188,4.525,1.488,6.832,0.849
						l76.798-21.316c4.782-1.326,7.593-6.299,6.266-11.079l-8.645-31.147c-1.622-5.845,1.813-11.919,7.657-13.542l55.676-15.454
						c2.82-0.783,5.786-0.415,8.351,1.035c2.565,1.45,4.409,3.803,5.191,6.623l26.422,95.195c0.641,2.306,2.148,4.229,4.248,5.416
						c2.1,1.188,4.525,1.488,6.831,0.849l76.117-21.126c4.782-1.328,7.592-6.299,6.266-11.08l-9.591-34.555
						c-0.783-2.821-0.416-5.786,1.035-8.351c1.45-2.565,3.801-4.407,6.622-5.19l87.7-24.342c5.846-1.623,11.919,1.813,13.541,7.657
						l6.565,23.653c1.328,4.781,6.298,7.592,11.079,6.265l67.357-18.694l0.534,1.927l-67.356,18.695
						c-5.844,1.622-11.919-1.813-13.541-7.658l-6.565-23.652c-1.328-4.781-6.297-7.593-11.079-6.266l-87.7,24.342
						c-2.306,0.64-4.229,2.148-5.417,4.248s-1.488,4.525-0.849,6.832l9.591,34.554c0.783,2.821,0.416,5.786-1.035,8.351
						c-1.45,2.564-3.801,4.408-6.622,5.191l-76.117,21.126c-5.845,1.622-11.919-1.813-13.541-7.657l-26.422-95.195
						c-0.641-2.306-2.148-4.229-4.248-5.416c-2.101-1.188-4.525-1.488-6.832-0.85l-55.676,15.454
						c-4.781,1.327-7.593,6.298-6.266,11.08l8.645,31.147c1.622,5.845-1.813,11.919-7.657,13.541l-76.798,21.316
						c-2.821,0.782-5.786,0.415-8.351-1.035s-4.408-3.802-5.191-6.622l-25.098-90.426c-0.641-2.307-2.148-4.229-4.248-5.416
						s-4.525-1.489-6.832-0.85L-81.708,320.284z"/>
				</g>
			</g>
			<g>
				<g>
					<path fill="#FFFFFF" d="M0.994,313.791c-2.563-1.45-4.408-3.802-5.19-6.623l-23.611-85.071l1.927-0.535l23.611,85.072
						c0.641,2.306,2.148,4.229,4.248,5.416c2.101,1.188,4.525,1.488,6.832,0.849l68.623-19.047c4.78-1.327,7.592-6.298,6.265-11.078
						l-12.995-46.82c-1.621-5.845,1.813-11.918,7.657-13.541l63.172-17.534c4.781-1.328,7.593-6.298,6.266-11.08l-11.86-42.731
						c-1.623-5.845,1.813-11.919,7.657-13.542l53.292-14.792c2.82-0.783,5.786-0.416,8.351,1.035
						c2.564,1.451,4.409,3.802,5.19,6.623l12.806,46.137c1.328,4.782,6.298,7.592,11.08,6.266l53.974-14.98
						c2.306-0.64,4.229-2.148,5.416-4.248c1.188-2.1,1.488-4.525,0.849-6.832l-9.969-35.917c-1.622-5.844,1.813-11.919,7.657-13.542
						l72.029-19.992c2.307-0.64,4.229-2.148,5.417-4.248c1.188-2.1,1.488-4.525,0.849-6.832L345-16.5l1.927-0.535l25.535,92.706
						c0.783,2.82,0.415,5.786-1.035,8.351s-3.802,4.409-6.622,5.191l-72.029,19.992c-2.306,0.64-4.229,2.148-5.417,4.248
						s-1.487,4.525-0.849,6.832l9.969,35.917c1.623,5.845-1.813,11.919-7.657,13.542l-53.973,14.981
						c-5.845,1.622-11.92-1.813-13.542-7.658l-12.806-46.137c-0.64-2.306-2.148-4.229-4.248-5.417
						c-2.1-1.187-4.525-1.489-6.831-0.849l-53.292,14.792c-4.781,1.327-7.593,6.297-6.266,11.08l11.86,42.731
						c1.623,5.844-1.813,11.918-7.657,13.542L78.896,224.34c-4.781,1.327-7.593,6.297-6.266,11.08l12.995,46.819
						c1.621,5.844-1.813,11.918-7.657,13.541L9.346,314.826C6.524,315.608,3.56,315.241,0.994,313.791z"/>
				</g>
			</g>
			<g>
				<g>
					<path fill="#FFFFFF" d="M452.5,498.667l-35.945-129.749c-0.641-2.307-2.148-4.229-4.248-5.416s-4.525-1.489-6.832-0.85
						l-27.314,7.582c-5.846,1.622-11.92-1.813-13.542-7.657l-25.854-93.15c-0.783-2.821-0.416-5.786,1.035-8.352
						c1.449-2.564,3.801-4.407,6.623-5.19l47.414-13.16c2.307-0.64,4.229-2.148,5.417-4.248s1.489-4.525,0.849-6.832l-9.969-35.917
						c-1.328-4.782-6.297-7.592-11.08-6.266l-34.213,9.496c-5.846,1.622-11.92-1.813-13.542-7.657L300.905,81.798
						c-1.328-4.782-6.298-7.592-11.081-6.266l-34.554,9.591c-5.845,1.622-11.919-1.813-13.542-7.658l-38.93-140.261l1.928-0.535
						l38.929,140.261c1.328,4.782,6.298,7.592,11.08,6.266l34.555-9.591c5.845-1.622,11.92,1.813,13.542,7.658l30.393,109.503
						c1.328,4.781,6.297,7.592,11.08,6.266l34.213-9.497c5.846-1.622,11.92,1.813,13.542,7.658l9.97,35.917
						c0.783,2.821,0.415,5.786-1.035,8.351c-1.451,2.564-3.803,4.408-6.623,5.191l-47.415,13.16
						c-2.306,0.641-4.229,2.149-5.417,4.249s-1.488,4.525-0.849,6.831l25.854,93.15c1.328,4.782,6.297,7.593,11.08,6.266
						l27.314-7.582c2.822-0.783,5.787-0.415,8.352,1.035s4.408,3.801,5.19,6.622l35.945,129.749L452.5,498.667z"/>
				</g>
			</g>
			<g>
				<g>
					<path fill="#FFFFFF" d="M25.333,504.167l-0.535-1.927l274.941-76.357c4.782-1.328,7.593-6.297,6.266-11.079l-39.14-141.016
						c-0.783-2.821-0.415-5.787,1.035-8.351c1.45-2.564,3.803-4.409,6.623-5.191l36.599-10.158
						c5.845-1.622,11.919,1.813,13.541,7.658l6.423,23.142c1.329,4.781,6.298,7.593,11.08,6.266l35.236-9.779
						c2.306-0.641,4.229-2.149,5.416-4.249s1.488-4.524,0.85-6.831l-8.835-31.829c-0.784-2.821-0.416-5.786,1.034-8.351
						c1.451-2.564,3.803-4.408,6.623-5.19l208.878-57.975l0.534,1.927L383.025,222.85c-2.307,0.64-4.229,2.148-5.417,4.249
						c-1.187,2.1-1.488,4.525-0.849,6.832l8.834,31.829c0.783,2.821,0.416,5.786-1.034,8.351s-3.802,4.409-6.622,5.191
						l-35.236,9.779c-5.846,1.622-11.92-1.813-13.541-7.657l-6.424-23.142c-1.328-4.781-6.298-7.593-11.08-6.266l-36.598,10.157
						c-2.307,0.641-4.23,2.149-5.418,4.249c-1.187,2.099-1.488,4.525-0.848,6.831l39.139,141.016
						c1.623,5.844-1.813,11.919-7.657,13.541L25.333,504.167z"/>
				</g>
			</g>
			<g>
				<g>
					<path fill="#FFFFFF" d="M-7.667,450.001l-0.534-1.927l267.078-74.235c4.781-1.327,7.592-6.297,6.266-11.078l-29.755-107.204
						c-1.328-4.783-6.297-7.593-11.08-6.266l-23.653,6.565c-2.82,0.783-5.786,0.415-8.351-1.035s-4.408-3.802-5.19-6.622
						l-8.078-29.104c-1.622-5.845,1.813-11.919,7.658-13.542l17.52-4.863c2.307-0.64,4.229-2.149,5.417-4.249
						s1.489-4.525,0.849-6.832l-23.207-83.611c-1.327-4.782-6.297-7.592-11.079-6.266l-10.281,2.854
						c-2.819,0.783-5.786,0.416-8.352-1.034c-2.564-1.45-4.407-3.803-5.189-6.623L113.936-43.542l1.927-0.535l38.435,138.473
						c1.328,4.782,6.297,7.592,11.08,6.265l10.28-2.854c2.821-0.784,5.786-0.416,8.352,1.035c2.564,1.45,4.408,3.802,5.19,6.623
						l23.207,83.611c1.622,5.845-1.813,11.919-7.658,13.542l-17.521,4.863c-2.306,0.641-4.229,2.149-5.417,4.249
						s-1.488,4.525-0.849,6.832l8.078,29.104c0.641,2.307,2.148,4.229,4.248,5.416s4.525,1.489,6.832,0.85l23.652-6.565
						c5.845-1.622,11.919,1.813,13.542,7.657l29.754,107.204c1.623,5.844-1.813,11.919-7.656,13.54L-7.667,450.001z"/>
				</g>
			</g>
			<g>
				<g>
					<path fill="#FFFFFF" d="M214.048,333.183c-2.452-1.387-4.375-3.707-5.187-6.63l-18.857-67.939
						c-0.641-2.307-2.148-4.229-4.248-5.417s-4.525-1.488-6.832-0.85l-37.449,10.396c-2.821,0.783-5.786,0.415-8.352-1.034
						c-2.564-1.45-4.408-3.803-5.19-6.623l-18.291-65.897c-0.639-2.306-2.147-4.229-4.247-5.417c-2.1-1.188-4.525-1.489-6.832-0.849
						l-53.973,14.98c-2.821,0.784-5.786,0.416-8.352-1.035c-2.564-1.45-4.407-3.802-5.189-6.623L-5.333,59.757l1.927-0.535
						L32.976,189.71c0.64,2.306,2.148,4.229,4.248,5.417c2.099,1.188,4.525,1.489,6.832,0.849l53.973-14.98
						c2.82-0.784,5.786-0.416,8.351,1.035c2.564,1.45,4.408,3.802,5.19,6.623l18.29,65.896c0.64,2.307,2.148,4.229,4.248,5.416
						c2.1,1.188,4.524,1.489,6.832,0.85l37.45-10.396c2.82-0.783,5.786-0.415,8.351,1.035c2.564,1.451,4.408,3.803,5.19,6.623
						l18.857,67.94c1.327,4.783,6.297,7.593,11.08,6.267l87.188-24.201c4.781-1.328,7.592-6.297,6.266-11.079l-22.829-82.249
						c-0.784-2.82-0.416-5.786,1.034-8.351c1.451-2.565,3.803-4.408,6.623-5.191l268.185-74.436l0.534,1.927l-268.184,74.436
						c-2.307,0.64-4.229,2.148-5.417,4.248c-1.187,2.1-1.488,4.525-0.849,6.832l22.828,82.25c1.623,5.844-1.813,11.919-7.656,13.54
						l-87.189,24.201C219.48,335.021,216.5,334.569,214.048,333.183z"/>
				</g>
			</g>
		</g>
		<g>
			<g>
				<g>
					<path fill="#FFFFFF" d="M-81.708,320.284l-0.534-1.927l108.237-30.042c2.819-0.783,5.786-0.416,8.351,1.034
						c2.565,1.45,4.407,3.802,5.19,6.623l25.099,90.426c0.64,2.306,2.147,4.229,4.247,5.417c2.101,1.188,4.525,1.488,6.832,0.849
						l76.798-21.316c4.782-1.326,7.593-6.299,6.266-11.079l-8.645-31.147c-1.622-5.845,1.813-11.919,7.657-13.542l55.676-15.454
						c2.82-0.783,5.786-0.415,8.351,1.035c2.565,1.45,4.409,3.803,5.191,6.623l26.422,95.195c0.641,2.306,2.148,4.229,4.248,5.416
						c2.1,1.188,4.525,1.488,6.831,0.849l76.117-21.126c4.782-1.328,7.592-6.299,6.266-11.08l-9.591-34.555
						c-0.783-2.821-0.416-5.786,1.035-8.351c1.45-2.565,3.801-4.407,6.622-5.19l87.7-24.342c5.846-1.623,11.919,1.813,13.541,7.657
						l6.565,23.653c1.328,4.781,6.298,7.592,11.079,6.265l67.357-18.694l0.534,1.927l-67.356,18.695
						c-5.844,1.622-11.919-1.813-13.541-7.658l-6.565-23.652c-1.328-4.781-6.297-7.593-11.079-6.266l-87.7,24.342
						c-2.306,0.64-4.229,2.148-5.417,4.248s-1.488,4.525-0.849,6.832l9.591,34.554c0.783,2.821,0.416,5.786-1.035,8.351
						c-1.45,2.564-3.801,4.408-6.622,5.191l-76.117,21.126c-5.845,1.622-11.919-1.813-13.541-7.657l-26.422-95.195
						c-0.641-2.306-2.148-4.229-4.248-5.416c-2.101-1.188-4.525-1.488-6.832-0.85l-55.676,15.454
						c-4.781,1.327-7.593,6.298-6.266,11.08l8.645,31.147c1.622,5.845-1.813,11.919-7.657,13.541l-76.798,21.316
						c-2.821,0.782-5.786,0.415-8.351-1.035s-4.408-3.802-5.191-6.622l-25.098-90.426c-0.641-2.307-2.148-4.229-4.248-5.416
						s-4.525-1.489-6.832-0.85L-81.708,320.284z"/>
				</g>
			</g>
			<g>
				<g>
					<path fill="#FFFFFF" d="M0.994,313.791c-2.563-1.45-4.408-3.802-5.19-6.623l-23.611-85.071l1.927-0.535l23.611,85.072
						c0.641,2.306,2.148,4.229,4.248,5.416c2.101,1.188,4.525,1.488,6.832,0.849l68.623-19.047c4.78-1.327,7.592-6.298,6.265-11.078
						l-12.995-46.82c-1.621-5.845,1.813-11.918,7.657-13.541l63.172-17.534c4.781-1.328,7.593-6.298,6.266-11.08l-11.86-42.731
						c-1.623-5.845,1.813-11.919,7.657-13.542l53.292-14.792c2.82-0.783,5.786-0.416,8.351,1.035
						c2.564,1.451,4.409,3.802,5.19,6.623l12.806,46.137c1.328,4.782,6.298,7.592,11.08,6.266l53.974-14.98
						c2.306-0.64,4.229-2.148,5.416-4.248c1.188-2.1,1.488-4.525,0.849-6.832l-9.969-35.917c-1.622-5.844,1.813-11.919,7.657-13.542
						l72.029-19.992c2.307-0.64,4.229-2.148,5.417-4.248c1.188-2.1,1.488-4.525,0.849-6.832L345-16.5l1.927-0.535l25.535,92.706
						c0.783,2.82,0.415,5.786-1.035,8.351s-3.802,4.409-6.622,5.191l-72.029,19.992c-2.306,0.64-4.229,2.148-5.417,4.248
						s-1.487,4.525-0.849,6.832l9.969,35.917c1.623,5.845-1.813,11.919-7.657,13.542l-53.973,14.981
						c-5.845,1.622-11.92-1.813-13.542-7.658l-12.806-46.137c-0.64-2.306-2.148-4.229-4.248-5.417
						c-2.1-1.187-4.525-1.489-6.831-0.849l-53.292,14.792c-4.781,1.327-7.593,6.297-6.266,11.08l11.86,42.731
						c1.623,5.844-1.813,11.918-7.657,13.542L78.896,224.34c-4.781,1.327-7.593,6.297-6.266,11.08l12.995,46.819
						c1.621,5.844-1.813,11.918-7.657,13.541L9.346,314.826C6.524,315.608,3.56,315.241,0.994,313.791z"/>
				</g>
			</g>
			<g>
				<g>
					<path fill="#FFFFFF" d="M452.236,497.716l-35.682-128.798c-0.641-2.307-2.148-4.229-4.248-5.416s-4.525-1.489-6.832-0.85
						l-27.314,7.582c-5.846,1.622-11.92-1.813-13.542-7.657l-25.854-93.15c-0.783-2.821-0.416-5.786,1.035-8.352
						c1.449-2.564,3.801-4.407,6.623-5.19l47.414-13.16c2.307-0.64,4.229-2.148,5.417-4.248s1.489-4.525,0.849-6.832l-9.969-35.917
						c-1.328-4.782-6.297-7.592-11.08-6.266l-34.213,9.496c-5.846,1.622-11.92-1.813-13.542-7.657L300.905,81.798
						c-1.328-4.782-6.298-7.592-11.081-6.266l-34.554,9.591c-5.845,1.622-11.919-1.813-13.542-7.658l-38.93-140.261l1.928-0.535
						l38.929,140.261c1.328,4.782,6.298,7.592,11.08,6.266l34.555-9.591c5.845-1.622,11.92,1.813,13.542,7.658l30.393,109.503
						c1.328,4.781,6.297,7.592,11.08,6.266l34.213-9.497c5.846-1.622,11.92,1.813,13.542,7.658l9.97,35.917
						c0.783,2.821,0.415,5.786-1.035,8.351c-1.451,2.564-3.803,4.408-6.623,5.191l-47.415,13.16
						c-2.306,0.641-4.229,2.149-5.417,4.249s-1.488,4.525-0.849,6.831l25.854,93.15c1.328,4.782,6.297,7.593,11.08,6.266
						l27.314-7.582c2.822-0.783,5.787-0.415,8.352,1.035s4.408,3.801,5.19,6.622l35.682,128.799L452.236,497.716z"/>
				</g>
			</g>
			<g>
				<g>
					<path fill="#FFFFFF" d="M25.333,504.167l-0.535-1.927l274.941-76.357c4.782-1.328,7.593-6.298,6.266-11.079l-39.14-141.016
						c-0.783-2.821-0.415-5.787,1.035-8.351c1.45-2.564,3.803-4.409,6.623-5.191l36.599-10.158
						c5.845-1.622,11.919,1.813,13.541,7.658l6.423,23.142c1.329,4.781,6.298,7.593,11.08,6.266l35.236-9.779
						c2.306-0.641,4.229-2.149,5.416-4.249s1.488-4.524,0.85-6.831l-8.835-31.829c-0.784-2.821-0.416-5.786,1.034-8.351
						c1.451-2.564,3.803-4.408,6.623-5.19l213.25-59.189l0.535,1.927l-213.25,59.189c-2.307,0.64-4.229,2.148-5.417,4.249
						c-1.187,2.1-1.488,4.525-0.849,6.832l8.834,31.829c0.783,2.821,0.416,5.786-1.034,8.351s-3.802,4.409-6.622,5.191
						l-35.236,9.779c-5.845,1.623-11.92-1.813-13.541-7.657l-6.424-23.142c-1.328-4.782-6.298-7.593-11.08-6.266l-36.598,10.157
						c-2.307,0.641-4.23,2.149-5.418,4.249c-1.187,2.099-1.488,4.525-0.848,6.831l39.139,141.016
						c1.623,5.844-1.813,11.919-7.657,13.541L25.333,504.167z"/>
				</g>
			</g>
			<g>
				<g>
					<path fill="#FFFFFF" d="M-7.667,450.001l-0.534-1.927l267.078-74.235c4.781-1.327,7.592-6.297,6.266-11.078l-29.755-107.204
						c-1.328-4.783-6.297-7.593-11.08-6.266l-23.653,6.565c-2.82,0.783-5.786,0.415-8.351-1.035s-4.408-3.802-5.19-6.622
						l-8.078-29.104c-1.622-5.845,1.813-11.919,7.658-13.542l17.52-4.863c2.307-0.64,4.229-2.149,5.417-4.249
						s1.489-4.525,0.849-6.832l-23.207-83.611c-1.327-4.782-6.297-7.592-11.079-6.266l-10.281,2.854
						c-2.819,0.783-5.786,0.416-8.352-1.034c-2.564-1.45-4.407-3.803-5.189-6.623L113.936-43.542l1.927-0.535l38.435,138.473
						c1.328,4.782,6.297,7.592,11.08,6.265l10.28-2.854c2.821-0.784,5.786-0.416,8.352,1.035c2.564,1.45,4.408,3.802,5.19,6.623
						l23.207,83.611c1.622,5.845-1.813,11.919-7.658,13.542l-17.521,4.863c-2.306,0.641-4.229,2.149-5.417,4.249
						s-1.488,4.525-0.849,6.832l8.078,29.104c0.641,2.307,2.148,4.229,4.248,5.416s4.525,1.489,6.832,0.85l23.652-6.565
						c5.845-1.622,11.919,1.813,13.542,7.657l29.754,107.204c1.623,5.844-1.813,11.919-7.656,13.54L-7.667,450.001z"/>
				</g>
			</g>
			<g>
				<g>
					<path fill="#FFFFFF" d="M214.048,333.183c-2.452-1.387-4.375-3.707-5.187-6.63l-18.857-67.939
						c-0.641-2.307-2.148-4.229-4.248-5.417s-4.525-1.488-6.832-0.85l-37.449,10.396c-2.821,0.783-5.786,0.415-8.352-1.034
						c-2.564-1.45-4.408-3.803-5.19-6.623l-18.291-65.897c-0.639-2.306-2.147-4.229-4.247-5.417c-2.1-1.188-4.525-1.489-6.832-0.849
						l-53.973,14.98c-2.821,0.784-5.786,0.416-8.352-1.035c-2.564-1.45-4.407-3.802-5.189-6.623L-5.333,59.757l1.927-0.535
						L32.976,189.71c0.64,2.306,2.148,4.229,4.248,5.417c2.099,1.188,4.525,1.489,6.832,0.849l53.973-14.98
						c2.82-0.784,5.786-0.416,8.351,1.035c2.564,1.45,4.408,3.802,5.19,6.623l18.29,65.896c0.64,2.307,2.148,4.229,4.248,5.416
						c2.1,1.188,4.524,1.489,6.832,0.85l37.45-10.396c2.82-0.783,5.786-0.415,8.351,1.035c2.564,1.451,4.408,3.803,5.19,6.623
						l18.857,67.94c1.327,4.783,6.297,7.593,11.08,6.267l87.188-24.201c4.781-1.328,7.592-6.297,6.266-11.079l-22.829-82.249
						c-0.784-2.82-0.416-5.786,1.034-8.351c1.451-2.565,3.803-4.408,6.623-5.191l268.185-74.436l0.534,1.927l-268.184,74.436
						c-2.307,0.64-4.229,2.148-5.417,4.248c-1.187,2.1-1.488,4.525-0.849,6.832l22.828,82.25c1.623,5.844-1.813,11.919-7.656,13.54
						l-87.189,24.201C219.48,335.021,216.5,334.569,214.048,333.183z"/>
				</g>
			</g>
		</g>
		<g opacity="0.37">
			<g>
				<g>
					<path fill="#FFFFFF" d="M-29.909,195.42l-0.535-1.928l67.357-18.695c5.845-1.621,11.918,1.812,13.541,7.657l6.564,23.653
						c0.64,2.306,2.149,4.229,4.249,5.417c2.099,1.187,4.525,1.488,6.83,0.848l87.701-24.341c2.306-0.641,4.229-2.149,5.416-4.248
						c1.188-2.1,1.488-4.526,0.85-6.832l-9.592-34.555c-0.783-2.82-0.415-5.786,1.035-8.351c1.45-2.565,3.802-4.409,6.623-5.191
						l76.116-21.127c5.845-1.622,11.92,1.813,13.541,7.658l26.422,95.195c0.641,2.305,2.149,4.229,4.249,5.416
						s4.525,1.489,6.831,0.848l55.677-15.453c2.306-0.64,4.229-2.149,5.416-4.248c1.188-2.1,1.489-4.525,0.849-6.831l-8.645-31.148
						c-1.623-5.844,1.812-11.918,7.657-13.542l76.798-21.314c5.847-1.623,11.92,1.813,13.542,7.656l25.098,90.426
						c1.328,4.781,6.297,7.592,11.08,6.265l108.237-30.042l0.534,1.927l-108.236,30.042c-5.847,1.622-11.92-1.813-13.543-7.657
						l-25.098-90.426c-1.328-4.781-6.297-7.592-11.079-6.265l-76.798,21.314c-4.782,1.328-7.593,6.299-6.266,11.08l8.645,31.148
						c0.783,2.821,0.416,5.786-1.033,8.35c-1.451,2.564-3.803,4.408-6.623,5.19l-55.678,15.453c-2.819,0.783-5.785,0.416-8.35-1.034
						c-2.564-1.45-4.408-3.802-5.191-6.622l-26.422-95.195c-1.328-4.782-6.297-7.592-11.08-6.266l-76.116,21.126
						c-4.781,1.328-7.592,6.298-6.266,11.08l9.592,34.555c0.783,2.82,0.415,5.786-1.035,8.351c-1.45,2.564-3.804,4.408-6.623,5.19
						l-87.7,24.341c-2.82,0.784-5.786,0.416-8.351-1.034c-2.563-1.449-4.408-3.802-5.19-6.623l-6.564-23.653
						c-1.326-4.781-6.297-7.592-11.079-6.265L-29.909,195.42z"/>
				</g>
			</g>
			<g>
				<g>
					<path fill="#FFFFFF" d="M144.311,499.002l-15.48-55.773c-1.623-5.845,1.813-11.92,7.657-13.541l72.028-19.992
						c4.782-1.327,7.593-6.298,6.266-11.079l-9.969-35.918c-1.622-5.845,1.814-11.92,7.657-13.542l53.974-14.979
						c2.82-0.784,5.785-0.416,8.351,1.034c2.564,1.45,4.409,3.802,5.19,6.623l12.806,46.138c0.641,2.306,2.148,4.229,4.248,5.416
						c2.1,1.188,4.525,1.488,6.832,0.85l53.291-14.792c4.781-1.327,7.592-6.298,6.266-11.08l-11.86-42.73
						c-1.621-5.846,1.814-11.92,7.658-13.542l63.171-17.533c4.782-1.328,7.593-6.298,6.266-11.079l-12.995-46.819
						c-1.621-5.844,1.813-11.918,7.657-13.541l68.622-19.047c5.846-1.621,11.92,1.813,13.542,7.658l23.611,85.073l-1.927,0.534
						l-23.611-85.072c-1.326-4.782-6.299-7.591-11.08-6.266l-68.623,19.047c-4.781,1.327-7.592,6.298-6.264,11.079l12.994,46.819
						c1.622,5.845-1.813,11.919-7.657,13.541L359.76,314.02c-4.781,1.327-7.592,6.299-6.266,11.08l11.859,42.731
						c1.622,5.845-1.813,11.919-7.657,13.541l-53.292,14.792c-2.82,0.783-5.786,0.415-8.351-1.035s-4.408-3.803-5.19-6.623
						l-12.806-46.138c-0.64-2.306-2.148-4.229-4.249-5.417c-2.099-1.188-4.524-1.488-6.83-0.848l-53.974,14.979
						c-4.781,1.327-7.592,6.298-6.266,11.08l9.969,35.918c1.622,5.846-1.813,11.918-7.657,13.541l-72.028,19.992
						c-4.782,1.328-7.593,6.298-6.266,11.08l15.48,55.772L144.311,499.002z"/>
				</g>
			</g>
			<g>
			</g>
			<g>
				<g>
					<path fill="#FFFFFF" d="M-89.029,355.659l-0.535-1.927l207.83-57.684c2.307-0.64,4.23-2.148,5.418-4.248
						s1.488-4.525,0.848-6.831l-8.834-31.829c-1.622-5.846,1.813-11.919,7.656-13.542l35.237-9.779
						c5.845-1.623,11.919,1.812,13.541,7.657l6.423,23.141c1.327,4.782,6.298,7.594,11.081,6.267l36.598-10.158
						c2.307-0.64,4.229-2.148,5.417-4.248s1.489-4.525,0.849-6.831l-39.14-141.016c-0.783-2.821-0.416-5.786,1.034-8.351
						c1.45-2.564,3.803-4.408,6.623-5.19L525.965,0.573L526.5,2.5L201.551,93.016c-2.306,0.641-4.229,2.149-5.416,4.249
						c-1.188,2.1-1.488,4.525-0.849,6.832l39.14,141.016c1.622,5.845-1.813,11.919-7.657,13.541l-36.598,10.159
						c-5.845,1.621-11.922-1.814-13.543-7.659l-6.423-23.142c-1.327-4.783-6.298-7.592-11.08-6.265l-35.237,9.779
						c-4.78,1.328-7.591,6.298-6.264,11.08l8.834,31.829c1.623,5.845-1.813,11.919-7.657,13.542L-89.029,355.659z"/>
				</g>
			</g>
			<g>
				<g>
					<path fill="#FFFFFF" d="M385.429,562.977l-38.434-138.472c-0.641-2.307-2.149-4.231-4.248-5.417
						c-2.101-1.188-4.526-1.488-6.833-0.848l-10.28,2.852c-2.82,0.784-5.786,0.416-8.351-1.034s-4.408-3.802-5.191-6.623
						l-23.207-83.611c-1.621-5.845,1.814-11.92,7.658-13.542l17.521-4.863c4.782-1.326,7.593-6.297,6.266-11.078l-8.078-29.104
						c-0.64-2.307-2.147-4.229-4.248-5.416c-2.1-1.188-4.524-1.489-6.831-0.85l-23.652,6.564c-2.82,0.783-5.787,0.416-8.352-1.034
						s-4.408-3.802-5.19-6.623l-29.755-107.203c-0.783-2.82-0.416-5.787,1.034-8.352c1.45-2.564,3.803-4.408,6.623-5.19
						l284.585-78.726L527,66.333l-284.585,78.726c-2.307,0.641-4.229,2.149-5.417,4.249c-1.188,2.1-1.489,4.525-0.849,6.832
						l29.755,107.204c0.641,2.306,2.148,4.229,4.248,5.417s4.525,1.488,6.832,0.848l23.652-6.564
						c2.82-0.782,5.786-0.416,8.351,1.034l0,0c2.565,1.45,4.409,3.803,5.19,6.623l8.078,29.104c0.783,2.821,0.416,5.786-1.034,8.351
						s-3.802,4.408-6.623,5.19l-17.521,4.863c-4.781,1.327-7.592,6.297-6.266,11.079l23.206,83.612
						c0.641,2.306,2.15,4.229,4.249,5.417c2.1,1.188,4.525,1.488,6.831,0.848l10.281-2.853c2.82-0.783,5.787-0.417,8.352,1.033
						c2.563,1.45,4.407,3.803,5.19,6.624l38.434,138.472L385.429,562.977z"/>
				</g>
			</g>
			<g>
				<g>
					<path fill="#FFFFFF" d="M-67.044,392.12l-0.534-1.927l268.184-74.436c2.306-0.641,4.229-2.149,5.417-4.249
						c1.188-2.099,1.488-4.524,0.848-6.83l-22.827-82.25c-0.783-2.821-0.416-5.786,1.034-8.351c1.45-2.564,3.803-4.408,6.624-5.19
						l87.188-24.2c5.845-1.623,11.92,1.813,13.541,7.657l18.858,67.94c1.328,4.781,6.297,7.593,11.079,6.266l37.451-10.395
						c2.819-0.782,5.785-0.414,8.35,1.036l0,0c2.564,1.45,4.408,3.802,5.191,6.622l18.289,65.896c0.641,2.307,2.15,4.23,4.248,5.417
						c2.1,1.188,4.525,1.489,6.832,0.849l53.974-14.98c5.845-1.622,11.919,1.813,13.542,7.657l48.016,173.979l-1.927,0.534
						l-48.017-173.979c-1.328-4.781-6.298-7.592-11.08-6.266l-53.973,14.98c-2.82,0.783-5.786,0.415-8.352-1.035
						c-2.563-1.449-4.407-3.801-5.189-6.622l-18.291-65.896c-0.641-2.306-2.148-4.229-4.248-5.416s-4.525-1.489-6.831-0.85
						l-37.45,10.395c-5.845,1.622-11.92-1.813-13.541-7.658l-18.857-67.94c-1.328-4.781-6.297-7.591-11.08-6.266l-87.188,24.2
						c-2.308,0.64-4.23,2.148-5.418,4.248c-1.188,2.1-1.489,4.525-0.849,6.831l22.827,82.25c0.784,2.82,0.417,5.786-1.033,8.351
						s-3.803,4.407-6.623,5.19L-67.044,392.12z"/>
				</g>
			</g>
		</g>
		<g opacity="0.25">
			<g>
				<g>
					<path fill="#FFFFFF" d="M286.081-102.825l2.148-0.596l20.838,75.077c1.807,6.514-2.02,13.285-8.535,15.093L274.17-5.934
						c-2.571,0.713-4.716,2.396-6.038,4.735c-1.323,2.34-1.66,5.044-0.946,7.614l27.131,97.751c0.714,2.57,2.395,4.714,4.735,6.038
						c2.339,1.324,5.043,1.658,7.614,0.946l38.514-10.69c3.144-0.874,6.449-0.464,9.309,1.153c2.858,1.617,4.913,4.238,5.785,7.383
						l23.548,84.839c1.808,6.514-2.021,13.285-8.535,15.094l-106.105,29.45c-2.569,0.714-4.714,2.396-6.037,4.735
						c-1.323,2.34-1.659,5.044-0.945,7.615l17.224,62.057c0.714,2.569,2.395,4.713,4.735,6.036c2.341,1.324,5.044,1.66,7.613,0.946
						l34.718-9.636c6.514-1.809,13.285,2.021,15.094,8.535l23.758,85.599c1.809,6.516-2.021,13.286-8.534,15.095l-100.79,27.974
						c-5.328,1.48-8.461,7.019-6.981,12.35l33.484,120.643l-2.148,0.596L246.887,460.28c-1.81-6.517,2.021-13.286,8.533-15.095
						l100.79-27.975c5.328-1.48,8.462-7.019,6.982-12.35l-23.759-85.598c-1.479-5.331-7.02-8.463-12.349-6.984l-34.718,9.637
						c-3.145,0.872-6.449,0.462-9.308-1.153c-2.858-1.616-4.913-4.238-5.786-7.382l-17.224-62.057
						c-0.872-3.144-0.463-6.45,1.153-9.308s4.238-4.914,7.381-5.787l106.105-29.449c5.33-1.48,8.462-7.02,6.983-12.349
						l-23.547-84.84c-1.479-5.33-7.021-8.463-12.35-6.983l-38.514,10.69c-3.145,0.873-6.45,0.463-9.309-1.154
						s-4.914-4.237-5.786-7.382l-27.13-97.75c-0.873-3.145-0.464-6.449,1.153-9.308c1.615-2.857,4.236-4.913,7.381-5.786
						l26.364-7.316c5.329-1.479,8.463-7.019,6.982-12.349L286.081-102.825z"/>
				</g>
			</g>
			<g>
				<g>
					<path fill="#FFFFFF" d="M-52.294,91.362L9.872,74.106c6.515-1.807,13.284,2.021,15.094,8.535l22.282,80.284
						c1.48,5.33,7.019,8.462,12.35,6.984l40.034-11.111c6.515-1.809,13.285,2.022,15.093,8.535l16.697,60.158
						c0.874,3.144,0.464,6.45-1.152,9.308c-1.618,2.859-4.238,4.914-7.383,5.785l-51.425,14.274
						c-2.571,0.713-4.714,2.395-6.038,4.735c-1.322,2.34-1.66,5.043-0.945,7.614l16.486,59.397c1.479,5.33,7.02,8.464,12.35,6.983
						l47.627-13.218c6.516-1.808,13.286,2.021,15.093,8.534l19.545,70.411c1.479,5.33,7.019,8.463,12.349,6.983l52.184-14.484
						c6.515-1.806,13.284,2.021,15.094,8.535l21.229,76.486c1.807,6.515-2.021,13.286-8.536,15.094l-94.821,26.317l-0.596-2.147
						l94.821-26.319c5.331-1.479,8.461-7.02,6.983-12.349l-21.229-76.486c-1.479-5.33-7.019-8.463-12.349-6.982l-52.185,14.483
						c-6.514,1.809-13.285-2.021-15.093-8.534l-19.544-70.412c-1.478-5.328-7.02-8.462-12.348-6.982l-47.628,13.219
						c-6.516,1.808-13.287-2.021-15.094-8.535L62.33,269.804c-0.873-3.144-0.463-6.449,1.153-9.308s4.238-4.914,7.382-5.785
						l51.426-14.275c2.57-0.712,4.713-2.394,6.037-4.734c1.323-2.34,1.66-5.044,0.945-7.615l-16.696-60.158
						c-1.479-5.33-7.019-8.461-12.35-6.983l-40.035,11.11c-6.514,1.808-13.284-2.02-15.093-8.535L22.818,83.238
						c-1.479-5.331-7.021-8.463-12.351-6.984L-51.697,93.51L-52.294,91.362z"/>
				</g>
			</g>
			<g>
			</g>
			<g>
				<g>
					<path fill="#FFFFFF" d="M107.477-168.717l2.147-0.596l64.295,231.646c0.713,2.571,2.395,4.715,4.735,6.038
						c2.34,1.324,5.044,1.66,7.614,0.945l35.478-9.846c6.514-1.808,13.285,2.021,15.094,8.535l10.9,39.274
						c1.808,6.514-2.021,13.285-8.535,15.093l-25.796,7.159c-5.328,1.479-8.464,7.02-6.983,12.351l11.322,40.792
						c0.715,2.57,2.395,4.715,4.735,6.038c2.34,1.324,5.045,1.658,7.615,0.945l157.176-43.625c3.145-0.873,6.449-0.464,9.308,1.152
						c2.858,1.617,4.912,4.239,5.785,7.382l95.613,345.505l-2.147,0.596L400.22,155.163c-0.714-2.57-2.394-4.714-4.735-6.038
						c-2.34-1.323-5.043-1.66-7.613-0.946l-157.177,43.625c-6.516,1.807-13.284-2.021-15.094-8.536l-11.323-40.792
						c-1.808-6.514,2.021-13.285,8.536-15.094l25.795-7.159c5.331-1.479,8.463-7.02,6.983-12.349l-10.9-39.274
						c-1.48-5.329-7.02-8.462-12.35-6.984l-35.478,9.847c-6.515,1.809-13.285-2.02-15.093-8.535L107.477-168.717z"/>
				</g>
			</g>
			<g>
				<g>
					<path fill="#FFFFFF" d="M-123.6,360.113l154.342-42.839c2.569-0.714,4.715-2.396,6.038-4.735
						c1.322-2.34,1.657-5.044,0.944-7.614l-3.18-11.46c-0.873-3.143-0.464-6.448,1.152-9.307s4.238-4.913,7.383-5.786l93.193-25.866
						c6.516-1.808,13.286,2.022,15.094,8.535l5.42,19.527c1.479,5.331,7.019,8.464,12.35,6.983l32.438-9.003
						c2.571-0.714,4.715-2.394,6.038-4.734c1.324-2.34,1.659-5.044,0.945-7.615l-7.316-26.362c-0.873-3.144-0.463-6.45,1.153-9.308
						c1.616-2.859,4.238-4.914,7.382-5.786l119.49-33.165c3.143-0.874,6.447-0.463,9.307,1.153c2.857,1.616,4.914,4.237,5.785,7.381
						l84.955,306.459l-2.147,0.596l-84.956-306.459c-0.713-2.57-2.394-4.714-4.733-6.037c-2.341-1.323-5.045-1.659-7.614-0.946
						l-119.49,33.166c-2.57,0.713-4.715,2.395-6.038,4.735c-1.324,2.34-1.659,5.044-0.945,7.615l7.317,26.363
						c0.872,3.143,0.462,6.449-1.153,9.308l0,0c-1.616,2.858-4.239,4.913-7.382,5.785l-32.439,9.004
						c-3.144,0.874-6.449,0.464-9.308-1.153c-2.857-1.616-4.912-4.236-5.785-7.382l-5.42-19.528
						c-1.479-5.33-7.02-8.462-12.351-6.982L43.676,280.52c-2.57,0.715-4.715,2.396-6.038,4.735s-1.659,5.045-0.945,7.614l3.18,11.46
						c0.873,3.143,0.464,6.45-1.152,9.308c-1.616,2.858-4.237,4.913-7.382,5.786l-154.342,42.838L-123.6,360.113z"/>
				</g>
			</g>
			<g>
				<g>
					<path fill="#FFFFFF" d="M66.838-144.214l2.146-0.595l82.967,298.918c0.713,2.571,2.395,4.714,4.736,6.038
						c2.339,1.323,5.041,1.659,7.612,0.945l91.676-25.444c3.145-0.873,6.449-0.463,9.308,1.153c2.859,1.617,4.914,4.239,5.785,7.383
						l26.974,97.179c1.808,6.516-2.021,13.286-8.536,15.095l-75.727,21.02c-5.328,1.479-8.462,7.017-6.982,12.348l11.586,41.743
						c0.872,3.143,0.461,6.448-1.155,9.307l0,0c-1.616,2.858-4.238,4.913-7.38,5.787l-73.449,20.385
						c-2.57,0.714-4.715,2.396-6.037,4.734c-1.324,2.342-1.66,5.045-0.945,7.614l16.697,60.159
						c1.808,6.515-2.021,13.284-8.536,15.094L-5.75,494l-0.596-2.147l143.327-39.354c5.328-1.48,8.462-7.02,6.983-12.349
						l-16.697-60.158c-0.874-3.145-0.464-6.45,1.153-9.309c1.615-2.856,4.237-4.912,7.382-5.784l73.448-20.387
						c2.569-0.715,4.713-2.396,6.036-4.736c1.324-2.34,1.66-5.043,0.947-7.613l-11.585-41.742
						c-1.809-6.515,2.02-13.285,8.534-15.093l75.727-21.02c5.329-1.48,8.461-7.02,6.984-12.35l-26.974-97.18
						c-0.713-2.57-2.394-4.715-4.734-6.039c-2.34-1.323-5.044-1.66-7.614-0.945l-91.677,25.444
						c-3.144,0.874-6.449,0.464-9.306-1.152c-2.86-1.617-4.914-4.238-5.786-7.383L66.838-144.214z"/>
				</g>
			</g>
		</g>
	</g>
</g>
<g>
	<g>
		<defs>
			<rect id="SVGID_4_" x="1" width="500" height="500"/>
		</defs>
		<clipPath id="SVGID_5_">
			<use xlink:href="#SVGID_4_"  overflow="visible"/>
		</clipPath>
	</g>
	<g>
		<defs>
			<rect id="SVGID_6_" x="1" width="500" height="500"/>
		</defs>
		<clipPath id="SVGID_7_">
			<use xlink:href="#SVGID_6_"  overflow="visible"/>
		</clipPath>
	</g>
</g>
</svg>
